# xmcd
#
# Track frame offsets: 
#        150
#        18217
#        37465
#        57282
#        75465
#
# Disc length: 1262 seconds
#
# Revision: 0
# Processed by: cddbd v1.5.2PL0 Copyright (c) Steve Scherf et al.
# Submitted via: ExactAudioCopyFreeDBPlugin 1.0
#
DISCID=3704ec05
DTITLE=Full Force - Can I Get Your Number ? [CDS)
DYEAR=1994
DGENRE=Funk
TTITLE0=Can I Get Your Number ? (Original Version)
TTITLE1=Can I Get Your Number ? (Keep It Real 'Hip Hop Funk Mix')
TTITLE2=Can I Get Your Number ? (In The Basement Mix)
TTITLE3=Can I Get Your Number ? (Keep It Real 'Bowlegged Conversation'
TTITLE3=Mix)
TTITLE4=Can I Get Your Number ? (Slow Grind Remix)
EXTD=
EXTT0=
EXTT1=
EXTT2=
EXTT3=
EXTT4=
PLAYORDER=
